<?xml version="1.0" encoding="iso-8859-1"?>
<!-- Generator: Adobe Illustrator 19.0.0, SVG Export Plug-In . SVG Version: 6.00 Build 0)  -->
<svg version="1.1" id="Layer_1" xmlns="http://www.w3.org/2000/svg" xmlns:xlink="http://www.w3.org/1999/xlink" x="0px" y="0px"
	 viewBox="0 0 512 512" width="1.5rem" height="1.5rem" style="enable-background:new 0 0 512 512;" xml:space="preserve">
<path style="fill:#7DD2F0;" d="M415.084,182.866H303.822c-12.816,0-23.207-10.39-23.207-23.206v-27.976
	c0-12.816-10.39-23.206-23.206-23.206H96.916c-12.816,0-23.206,10.39-23.206,23.206v357.235c0,12.748,10.333,23.081,23.081,23.081
	h318.418c12.748,0,23.081-10.333,23.081-23.081V206.071C438.29,193.256,427.9,182.866,415.084,182.866z"/>
<path style="fill:#61B9D9;" d="M96.792,512H415.21c12.748,0,23.081-10.333,23.081-23.081V370.896
	c0,12.748-10.333,23.081-23.081,23.081H96.792c-12.748,0-23.081-10.333-23.081-23.081v118.023C73.711,501.667,84.044,512,96.792,512
	z"/>
<rect x="309.574" y="134.342" style="fill:#FFE6CC;" width="88.603" height="98.442"/>
<g>
	<path style="fill:#61B9D9;" d="M376.962,191.61H330.79c-4.444,0-8.047-3.603-8.047-8.047s3.603-8.047,8.047-8.047h46.172
		c4.444,0,8.047,3.603,8.047,8.047S381.406,191.61,376.962,191.61z"/>
	<path style="fill:#61B9D9;" d="M376.962,168.513H330.79c-4.444,0-8.047-3.603-8.047-8.047c0-4.444,3.603-8.047,8.047-8.047h46.172
		c4.444,0,8.047,3.603,8.047,8.047C385.009,164.91,381.406,168.513,376.962,168.513z"/>
	<path style="fill:#61B9D9;" d="M376.962,214.707H330.79c-4.444,0-8.047-3.603-8.047-8.047s3.603-8.047,8.047-8.047h46.172
		c4.444,0,8.047,3.603,8.047,8.047S381.406,214.707,376.962,214.707z"/>
</g>
<path style="fill:#B9E578;" d="M214.899,151.186h-75.472c-14.226,0-25.758,11.532-25.758,25.758v37.462
	c0,14.226,11.532,25.758,25.758,25.758h75.472c14.226,0,25.758-11.532,25.758-25.758v-37.462
	C240.657,162.718,229.124,151.186,214.899,151.186z"/>
<path style="opacity:0.1;enable-background:new    ;" d="M135.128,214.406v-37.462c0-14.226,11.532-25.758,25.758-25.758h-21.459
	c-14.226,0-25.758,11.532-25.758,25.758v37.462c0,14.226,11.532,25.758,25.758,25.758h21.459
	C146.659,240.163,135.128,228.632,135.128,214.406z"/>
<path style="fill:#7DD2F0;" d="M379.816,421.264H132.184c-6.28,0-11.371,5.091-11.371,11.371v41.794
	c0,6.28,5.091,11.371,11.371,11.371h247.631c6.28,0,11.371-5.091,11.371-11.371v-41.794
	C391.187,426.355,386.095,421.264,379.816,421.264z"/>
<circle style="fill:#61B9D9;" cx="256.002" cy="453.529" r="12.897"/>
<g>
	<circle style="fill:#FFFFFF;" cx="136.123" cy="282.933" r="15.182"/>
	<circle style="fill:#FFFFFF;" cx="136.123" cy="334.208" r="15.182"/>
	<circle style="fill:#FFFFFF;" cx="196.057" cy="282.933" r="15.182"/>
	<circle style="fill:#FFFFFF;" cx="196.057" cy="334.208" r="15.182"/>
	<circle style="fill:#FFFFFF;" cx="256.002" cy="282.933" r="15.182"/>
	<circle style="fill:#FFFFFF;" cx="256.002" cy="334.208" r="15.182"/>
	<circle style="fill:#FFFFFF;" cx="315.936" cy="282.933" r="15.182"/>
	<circle style="fill:#FFFFFF;" cx="315.936" cy="334.208" r="15.182"/>
</g>
<circle style="fill:#B9E578;" cx="375.881" cy="282.933" r="15.182"/>
<circle style="fill:#FF6C59;" cx="375.881" cy="334.208" r="15.182"/>
<rect x="157.56" y="65.921" style="fill:#61B9D9;" width="39.204" height="61.243"/>
<path style="fill:#464655;" d="M248.183,0h-142.04C93.441,0,83.145,10.297,83.145,22.997v37.942
	c0,12.701,10.297,22.997,22.997,22.997h142.04c12.701,0,22.997-10.297,22.997-22.997V22.997C271.181,10.297,260.884,0,248.183,0z"/>
<path style="opacity:0.1;enable-background:new    ;" d="M98.166,60.941V22.997C98.166,10.297,108.462,0,121.163,0h-15.021
	C93.441,0,83.145,10.297,83.145,22.997v37.943c0,12.701,10.297,22.997,22.997,22.997h15.021
	C108.462,83.938,98.166,73.642,98.166,60.941z"/>
<rect x="109.965" y="26.823" style="fill:#B9E578;" width="134.385" height="30.289"/>
<rect x="109.965" y="26.823" style="opacity:0.1;enable-background:new    ;" width="134.385" height="10.729"/>
<path style="fill:#61B9D9;" d="M413.256,240.831h-118.76c-4.444,0-8.047-3.603-8.047-8.047s3.603-8.047,8.047-8.047h118.76
	c4.444,0,8.047,3.603,8.047,8.047S417.7,240.831,413.256,240.831z"/>
<path style="opacity:0.1;enable-background:new    ;" d="M100.534,488.919V131.684c0-12.816,10.39-23.206,23.206-23.206H96.917
	c-12.816,0-23.206,10.39-23.206,23.206v357.235c0,12.748,10.333,23.081,23.081,23.081h26.823
	C110.867,512,100.534,501.667,100.534,488.919z"/>
<g>
</g>
<g>
</g>
<g>
</g>
<g>
</g>
<g>
</g>
<g>
</g>
<g>
</g>
<g>
</g>
<g>
</g>
<g>
</g>
<g>
</g>
<g>
</g>
<g>
</g>
<g>
</g>
<g>
</g>
</svg>
