<?xml version="1.0" encoding="iso-8859-1"?>
<!-- Generator: Adobe Illustrator 19.0.0, SVG Export Plug-In . SVG Version: 6.00 Build 0)  -->
<svg version="1.1" id="Layer_1" xmlns="http://www.w3.org/2000/svg" xmlns:xlink="http://www.w3.org/1999/xlink" x="0px" y="0px"
	 viewBox="0 0 512 512" height="1.5rem" width="1.5rem" style="enable-background:new 0 0 512 512;" xml:space="preserve">
<path style="fill:#D1D3D4;" d="M204.51,433.564h-57.459c-10.621,0-19.231-8.61-19.231-19.231V289.971
	c0-12.844,12.388-22.101,24.714-18.433l57.459,17.094c8.155,2.427,13.747,9.924,13.747,18.432v107.269
	C223.741,424.954,215.131,433.564,204.51,433.564z"/>
<path style="fill:#BCBEC0;" d="M209.994,288.631l-18.431-5.483v150.417h12.949c10.621,0,19.231-8.61,19.231-19.231V307.064
	C223.741,298.555,218.149,291.058,209.994,288.631z"/>
<path style="fill:#E6E7E8;" d="M283.209,350.54L88.947,292.75c-8.155-2.427-13.747-9.924-13.747-18.433v-92.478
	c0-8.509,5.591-16.006,13.747-18.432l194.26-57.79c12.312-3.662,24.714,5.572,24.714,18.432v208.059
	C307.923,344.927,295.56,354.212,283.209,350.54z"/>
<path style="fill:#D1D3D4;" d="M283.209,105.617l-91.647,27.264v190.396l91.647,27.264c12.346,3.671,24.714-5.609,24.714-18.432
	v-208.06C307.923,111.205,295.537,101.95,283.209,105.617z"/>
<path style="fill:#FF9392;" d="M94.432,316.664H19.231C8.61,316.664,0,308.054,0,297.433v-138.71
	c0-10.621,8.61-19.231,19.231-19.231h75.201c10.621,0,19.231,8.61,19.231,19.231v138.71
	C113.663,308.054,105.053,316.664,94.432,316.664z"/>
<path style="fill:#FF7876;" d="M349.482,377.721h-60.79c-10.621,0-19.231-8.61-19.231-19.231V97.667
	c0-10.621,8.61-19.231,19.231-19.231h60.788c10.621,0,19.231,8.61,19.231,19.231v260.822
	C368.713,369.11,360.103,377.721,349.482,377.721z"/>
<g>
	<path style="fill:#51B3DA;" d="M492.769,247.309H416.94c-10.621,0-19.231-8.61-19.231-19.231c0-10.621,8.61-19.231,19.231-19.231
		h75.829c10.621,0,19.231,8.61,19.231,19.231C512,238.699,503.391,247.309,492.769,247.309z"/>
	<path style="fill:#51B3DA;" d="M401.492,172.483c-7.51-7.509-7.51-19.686,0-27.196l53.619-53.619c7.509-7.51,19.686-7.51,27.196,0
		c7.51,7.509,7.51,19.686,0,27.196l-53.619,53.619C421.179,179.994,409.001,179.995,401.492,172.483z"/>
	<path style="fill:#51B3DA;" d="M455.11,364.488l-53.619-53.619c-7.51-7.51-7.51-19.686,0-27.196c7.509-7.51,19.686-7.51,27.196,0
		l53.619,53.619c7.51,7.51,7.51,19.686,0,27.196C474.799,371.997,462.621,371.999,455.11,364.488z"/>
</g>
<g>
</g>
<g>
</g>
<g>
</g>
<g>
</g>
<g>
</g>
<g>
</g>
<g>
</g>
<g>
</g>
<g>
</g>
<g>
</g>
<g>
</g>
<g>
</g>
<g>
</g>
<g>
</g>
<g>
</g>
</svg>
