<?xml version="1.0" encoding="iso-8859-1"?>
<!-- Generator: Adobe Illustrator 19.0.0, SVG Export Plug-In . SVG Version: 6.00 Build 0)  -->
<svg version="1.1" id="Layer_1" xmlns="http://www.w3.org/2000/svg" xmlns:xlink="http://www.w3.org/1999/xlink" x="0px" y="0px"
	 viewBox="0 0 512 512" height="1.5rem" width="1.5rem" style="enable-background:new 0 0 512 512;" xml:space="preserve">
<g>
	<path style="fill:#FFD76E;" d="M114.902,108.353c-29.873,0-54.177-24.303-54.177-54.177S85.029,0,114.902,0
		s54.177,24.303,54.177,54.177S144.776,108.353,114.902,108.353z"/>
	<path style="fill:#FFD76E;" d="M175.033,229.805H53.581c-9.864,0-17.86-7.997-17.86-17.86v-60.317
		c0-23.206,18.877-42.083,42.083-42.083h73.006c23.206,0,42.083,18.877,42.083,42.083v60.317
		C192.893,221.808,184.896,229.805,175.033,229.805z"/>
	<path style="fill:#FFD76E;" d="M397.098,390.549c-29.873,0-54.177-24.303-54.177-54.177c0-29.873,24.303-54.177,54.177-54.177
		c29.873,0,54.177,24.303,54.177,54.177C451.274,366.245,426.971,390.549,397.098,390.549z"/>
	<path style="fill:#FFD76E;" d="M458.419,512H336.967c-9.864,0-17.86-7.997-17.86-17.86v-60.317
		c0-23.206,18.877-42.083,42.083-42.083h73.006c23.206,0,42.083,18.877,42.083,42.083v60.317
		C476.279,504.003,468.282,512,458.419,512z"/>
</g>
<path style="fill:#55A9A6;" d="M377.087,232.337c-11.213-57.763-62.138-99.689-121.087-99.689c-9.864,0-17.86-7.997-17.86-17.86
	s7.997-17.86,17.86-17.86c76.017,0,141.688,54.085,156.154,128.602c1.88,9.683-4.446,19.057-14.13,20.936
	C388.353,248.346,378.969,242.032,377.087,232.337z"/>
<path style="fill:#65C6BB;" d="M256,415.072c-76.017,0-141.688-54.085-156.154-128.602c-1.88-9.683,4.446-19.057,14.13-20.936
	c9.678-1.882,19.057,4.446,20.936,14.13c11.213,57.763,62.138,99.689,121.087,99.689c9.864,0,17.86,7.997,17.86,17.86
	S265.864,415.072,256,415.072z"/>
<g>
	<path style="fill:#F5AA2C;" d="M150.81,109.544h-36.503v120.26h60.726c9.864,0,17.86-7.997,17.86-17.86v-60.317
		C192.893,128.422,174.016,109.544,150.81,109.544z"/>
	<path style="fill:#F5AA2C;" d="M114.902,0c-0.2,0-0.397,0.013-0.595,0.015v108.324c0.199,0.001,0.395,0.014,0.595,0.014
		c29.873,0,54.177-24.303,54.177-54.177S144.776,0,114.902,0z"/>
	<path style="fill:#F5AA2C;" d="M433.601,391.74h-36.503V512h60.726c9.864,0,17.86-7.997,17.86-17.86v-60.317
		C475.684,410.617,456.806,391.74,433.601,391.74z"/>
	<path style="fill:#F5AA2C;" d="M397.693,282.195c-0.2,0-0.397,0.013-0.595,0.015v108.324c0.199,0.002,0.395,0.016,0.595,0.016
		c29.873,0,54.177-24.303,54.177-54.177S427.566,282.195,397.693,282.195z"/>
</g>
<g>
</g>
<g>
</g>
<g>
</g>
<g>
</g>
<g>
</g>
<g>
</g>
<g>
</g>
<g>
</g>
<g>
</g>
<g>
</g>
<g>
</g>
<g>
</g>
<g>
</g>
<g>
</g>
<g>
</g>
</svg>
