<?xml version="1.0" encoding="iso-8859-1"?>
<!-- Generator: Adobe Illustrator 19.0.0, SVG Export Plug-In . SVG Version: 6.00 Build 0)  -->
<svg version="1.1" id="Layer_1" xmlns="http://www.w3.org/2000/svg" xmlns:xlink="http://www.w3.org/1999/xlink" x="0px" y="0px"
	 viewBox="0 0 512 512" height="1.5rem" width="1.5rem" style="enable-background:new 0 0 512 512;" xml:space="preserve">
<path style="fill:#334F55;" d="M467.575,401.566V256c0-89.996-73.235-163.21-163.257-163.21h-96.949
	c-90.022,0-163.257,73.214-163.257,163.21v145.566H0v17.644h52.933h405.82H512v-17.644H467.575z"/>
<path style="fill:#F1854C;" d="M61.755,401.566V256c0-80.265,65.322-145.566,145.613-145.566h96.949
	c80.291,0,145.613,65.3,145.613,145.566v145.566H61.755z"/>
<g>
	<polygon style="fill:#334F55;" points="105.866,295.7 185.265,295.7 185.265,322.166 202.91,322.166 202.91,295.7 211.732,295.7 
		211.732,278.055 105.866,278.055 	"/>
	<polygon style="fill:#334F55;" points="299.954,295.7 379.353,295.7 379.353,322.166 396.997,322.166 396.997,295.7 405.82,295.7 
		405.82,278.055 299.954,278.055 	"/>
</g>
<g>
</g>
<g>
</g>
<g>
</g>
<g>
</g>
<g>
</g>
<g>
</g>
<g>
</g>
<g>
</g>
<g>
</g>
<g>
</g>
<g>
</g>
<g>
</g>
<g>
</g>
<g>
</g>
<g>
</g>
</svg>
