<?xml version="1.0" encoding="iso-8859-1"?>
<!-- Generator: Adobe Illustrator 19.0.0, SVG Export Plug-In . SVG Version: 6.00 Build 0)  -->
<svg version="1.1" id="Layer_1" xmlns="http://www.w3.org/2000/svg" xmlns:xlink="http://www.w3.org/1999/xlink" x="0px" y="0px"
	 viewBox="0 0 496 496" width="1.5rem" height="1.5rem" style="enable-background:new 0 0 496 496;" xml:space="preserve">
<path style="fill:#A8A8A8;" d="M496,359.2c0,8.8-16,16-32,16l0,0c-16,0-32-7.2-32-16V280c0-8.8,16-16,32-16l0,0c16,0,32,7.2,32,16
	V359.2z"/>
<g>
	<rect x="464" y="320.8" style="fill:#EAEAEA;" width="24" height="8"/>
	<rect x="464" y="304.8" style="fill:#EAEAEA;" width="24" height="8"/>
	<rect x="464" y="288.8" style="fill:#EAEAEA;" width="24" height="8"/>
	<rect x="464" y="336.8" style="fill:#EAEAEA;" width="24" height="8"/>
	<rect x="464" y="352.8" style="fill:#EAEAEA;" width="24" height="8"/>
	<polygon style="fill:#EAEAEA;" points="430.4,240.8 421.6,176.8 328,176.8 328,128.8 16,128.8 16,360.8 324.8,360.8 326.4,360.8 
		374.4,360.8 447.2,360.8 472,360.8 472,240.8 	"/>
</g>
<g>
	<polyline style="fill:#C4C4C4;" points="448,360.8 472,360.8 472,240.8 430.4,240.8 421.6,176.8 328,176.8 328,128.8 16,128.8 	"/>
</g>
<rect y="360.8" style="fill:#F15249;" width="496" height="24"/>
<circle style="fill:#2F423F;" cx="112.8" cy="368" r="47.2"/>
<circle style="fill:#50BB75;" cx="112.8" cy="368" r="23.2"/>
<path style="fill:#099361;" d="M128.8,352c8.8,8.8,8.8,23.2,0,32.8c-8.8,8.8-23.2,8.8-32.8,0"/>
<path style="fill:#2F423F;" d="M425.6,368c0,26.4-20.8,47.2-47.2,47.2c-26.4,0-47.2-20.8-47.2-47.2s20.8-47.2,46.4-47.2
	C404,320.8,425.6,342.4,425.6,368z"/>
<circle style="fill:#50BB75;" cx="377.6" cy="368" r="23.2"/>
<path style="fill:#099361;" d="M394.4,352c8.8,8.8,8.8,23.2,0,32.8s-23.2,8.8-32.8,0"/>
<polygon style="fill:#F15249;" points="176,200.8 144,200.8 144,168.8 104,168.8 104,200.8 72,200.8 72,240.8 104,240.8 104,272.8 
	144,272.8 144,240.8 176,240.8 "/>
<g>
	<polygon style="fill:#6965A8;" points="376,240.8 430.4,240.8 424,192.8 376,192.8 	"/>
	<polygon style="fill:#6965A8;" points="360,192.8 323.2,192.8 323.2,240.8 360,240.8 	"/>
</g>
<g>
	<polyline style="fill:#40406B;" points="376,240.8 430.4,240.8 424,192.8 	"/>
	<polyline style="fill:#40406B;" points="323.2,240.8 360,240.8 360,192.8 	"/>
</g>
<rect x="16" y="296.8" style="fill:#C4C4C4;" width="456" height="16"/>
<rect x="16" y="280.8" style="fill:#3AC2F2;" width="456" height="24"/>
<path style="fill:#009CC6;" d="M160,80.8h-39.2c-20.8,0-38.4,16-43.2,32H160V80.8z"/>
<path style="fill:#C93131;" d="M184,112.8h80c-5.6-16-22.4-32-43.2-32H184V112.8z"/>
<path style="fill:#F15249;" d="M254.4,96.8c-7.2-8-19.2-16-33.6-16H184v16H254.4z"/>
<path style="fill:#3AC2F2;" d="M160,96.8v-16h-39.2c-14.4,0-28,8-33.6,16H160z"/>
<path style="fill:#FFC114;" d="M472,249.6h-2.4c-13.6,0-25.6,11.2-25.6,24.8c0,13.6,12,24.8,25.6,24.8c0.8,0,2.4,0,2.4,0V249.6z"/>
<path style="fill:#FCA12A;" d="M444,272.8C444,272.8,443.2,273.6,444,272.8c0,14.4,12,25.6,25.6,25.6c0.8,0,2.4,0,2.4,0v-25.6H444z"
	/>
<g>
</g>
<g>
</g>
<g>
</g>
<g>
</g>
<g>
</g>
<g>
</g>
<g>
</g>
<g>
</g>
<g>
</g>
<g>
</g>
<g>
</g>
<g>
</g>
<g>
</g>
<g>
</g>
<g>
</g>
</svg>
