<?xml version="1.0" encoding="iso-8859-1"?>
<!-- Generator: Adobe Illustrator 19.0.0, SVG Export Plug-In . SVG Version: 6.00 Build 0)  -->
<svg version="1.1" id="Layer_1" xmlns="http://www.w3.org/2000/svg" xmlns:xlink="http://www.w3.org/1999/xlink" x="0px" y="0px"
	 viewBox="0 0 512.015 512.015" width="1.5rem" height="1.5rem" style="enable-background:new 0 0 512.015 512.015;" xml:space="preserve">
<g>
	<g>
		<polygon points="410.621,0 380.205,30.416 415.69,65.901 385.274,96.317 415.69,126.734 446.107,96.317 481.591,131.802 
			512.008,101.385 		"/>
	</g>
</g>
<g>
	<g>
		
			<rect x="0.517" y="439.815" transform="matrix(0.7071 -0.7071 0.7071 0.7071 -311.3545 170.9687)" width="100.366" height="43.014"/>
	</g>
</g>
<g>
	<g>
		<polygon points="319.373,91.248 278.82,131.802 334.581,187.563 304.166,217.979 248.405,162.218 207.848,202.773 263.61,258.533 
			233.195,288.948 177.434,233.189 136.88,273.741 192.641,329.504 162.225,359.919 106.464,304.157 65.909,344.714 
			167.294,446.099 420.759,192.635 		"/>
	</g>
</g>
<g>
</g>
<g>
</g>
<g>
</g>
<g>
</g>
<g>
</g>
<g>
</g>
<g>
</g>
<g>
</g>
<g>
</g>
<g>
</g>
<g>
</g>
<g>
</g>
<g>
</g>
<g>
</g>
<g>
</g>
</svg>
