<?xml version="1.0" encoding="iso-8859-1"?>
<!-- Generator: Adobe Illustrator 19.0.0, SVG Export Plug-In . SVG Version: 6.00 Build 0)  -->
<svg version="1.1" id="Capa_1" xmlns="http://www.w3.org/2000/svg" xmlns:xlink="http://www.w3.org/1999/xlink" x="0px" y="0px"
	 viewBox="0 0 460 460" height="1.5rem" width="1.5rem" style="enable-background:new 0 0 460 460;" xml:space="preserve">
<g>
	<polygon style="fill:#FFCC99;" points="124,320.809 88.45,235 123.5,235 123.5,205 81,205 81,111 123,111 123,81 81,81 81,40 
		51,40 51,222.984 109,362.983 109,357.016 	"/>
	<polygon style="fill:#FFB76E;" points="167,81 123,81 123,111 167,111 167,205 123.5,205 123.5,235 159.55,235 124,320.809 
		109,357.016 109,420 139,420 139,362.984 197,222.984 197,40 167,40 	"/>
	<polygon style="fill:#801B06;" points="108.6,460 139,460 139,420 109,420 	"/>
	<rect x="122.6" style="fill:#801B06;" width="89.4" height="40"/>
	<rect x="36" style="fill:#D5310E;" width="86.6" height="40"/>
	<polygon style="fill:#FFCC99;" points="336,320.809 300.45,235 335.5,235 335.5,205 293,205 293,111 335,111 335,81 293,81 293,40 
		263,40 263,222.984 321,362.983 321,357.016 	"/>
	<polygon style="fill:#FFB76E;" points="379,81 335,81 335,111 379,111 379,205 335.5,205 335.5,235 371.55,235 336,320.809 
		321,357.016 321,420 351,420 351,362.984 409,222.984 409,40 379,40 	"/>
	<rect x="321" y="420" style="fill:#801B06;" width="30" height="40"/>
	<rect x="334.6" style="fill:#801B06;" width="89.4" height="40"/>
	<rect x="248" style="fill:#D5310E;" width="86.6" height="40"/>
</g>
<g>
</g>
<g>
</g>
<g>
</g>
<g>
</g>
<g>
</g>
<g>
</g>
<g>
</g>
<g>
</g>
<g>
</g>
<g>
</g>
<g>
</g>
<g>
</g>
<g>
</g>
<g>
</g>
<g>
</g>
</svg>
