<?xml version="1.0" encoding="iso-8859-1"?>
<!-- Generator: Adobe Illustrator 19.0.0, SVG Export Plug-In . SVG Version: 6.00 Build 0)  -->
<svg version="1.1" id="Layer_1" xmlns="http://www.w3.org/2000/svg" xmlns:xlink="http://www.w3.org/1999/xlink" x="0px" y="0px"
	 viewBox="0 0 511.994 511.994" style="enable-background:new 0 0 511.994 511.994;" xml:space="preserve">
<g>
	<g>
		<circle cx="39.573" cy="181.327" r="39.573"/>
	</g>
</g>
<g>
	<g>
		<path d="M495.163,316.23L343.08,283.225c-3.329-0.722-6.782-0.638-10.073,0.246l-104.194,28.004
			c9.144-4.551,88.352-43.982,98.536-49.053c7.924-3.944,14.117-1.852,20.353-0.497l17.935,3.892l-39.867-41.73
			c-3.665-3.835-8.617-6.134-13.878-6.52c0.412-2.241,0.421-4.594-0.065-6.962c-2.024-9.878-11.683-16.24-21.55-14.219
			l-90.122,18.471l-55.659-0.028l-39.992-0.021c-9.516,0.038-19.035,3.184-25.349,14.524c-22.483,40.469-51.35,94.54-60.645,111.148
			c-3.124,5.582-3.099,12.391,0.066,17.948c3.164,5.559,9.006,9.056,15.401,9.219c0.374,0.01,101.702,2.594,102.076,2.594
			c9.867,0,17.989-7.871,18.242-17.791c0.256-10.08-7.707-18.46-17.787-18.716l-71.363-1.818
			c10.276-18.36,8.057-14.395,18.498-33.048l28.193,15.621l8.969-34.03c3.078-11.681,10.968-21.354,21.739-26.718l5.088-19.305
			c2.75-10.432,13.46-16.737,23.968-13.969l9.467,2.495c10.459,2.756,16.726,13.507,13.971,23.968l-4.684,17.774l-0.403,1.531
			c6.727,9.975,8.825,22.281,5.746,33.961c-1.438,5.456-12.542,47.59-13.972,53.014c6.986,3.871,10.518,5.76,17.041,7.24
			c4.053,0.919,7.932,1.198,11.691,0.186c6.369-1.711,122.371-32.889,128.631-34.572l147.015,31.906
			c11.531,2.502,22.899-4.814,25.4-16.341C514.004,330.103,506.689,318.732,495.163,316.23z"/>
	</g>
</g>
<g>
	<g>
		<path d="M176.526,274.335c-2.267-3.156-3.006-7.16-2.016-10.918l5.397-20.476c0.558-2.12-0.707-4.293-2.828-4.851l-9.468-2.496
			c-2.119-0.559-4.292,0.706-4.851,2.828l-5.397,20.476c-0.991,3.758-3.607,6.877-7.135,8.506
			c-7.068,3.263-12.31,9.513-14.295,17.041l-8.264,31.354l9.29,0.236c14.782,0.377,27.247,9.625,32.445,22.519l11.161-42.346
			C182.55,288.679,181.068,280.658,176.526,274.335z"/>
	</g>
</g>
<g>
</g>
<g>
</g>
<g>
</g>
<g>
</g>
<g>
</g>
<g>
</g>
<g>
</g>
<g>
</g>
<g>
</g>
<g>
</g>
<g>
</g>
<g>
</g>
<g>
</g>
<g>
</g>
<g>
</g>
</svg>
