<?xml version="1.0" encoding="iso-8859-1"?>
<!-- Generator: Adobe Illustrator 19.0.0, SVG Export Plug-In . SVG Version: 6.00 Build 0)  -->
<svg version="1.1" id="Layer_1" xmlns="http://www.w3.org/2000/svg" xmlns:xlink="http://www.w3.org/1999/xlink" x="0px" y="0px"
	 viewBox="0 0 495 495" height="1.5rem" width="1.5rem" style="enable-background:new 0 0 495 495;" xml:space="preserve">
<g>
	<rect x="381.009" y="195.505" style="fill:#FF5023;" width="76.931" height="120"/>
	<rect x="37.061" y="195.505" style="fill:#FF0C38;" width="76.93" height="120"/>
	<path style="fill:#FF5023;" d="M247.5,315.505c-33.084,0-60-26.916-60-60s26.916-60,60-60V153.51H113.99V455H247.5V315.505z"/>
	<path style="fill:#FF0C38;" d="M381.009,153.51H247.5v41.995c33.084,0,60,26.916,60,60s-26.916,60-60,60l0,139.495h133.509V153.51z
		"/>
	<path style="fill:#FFA733;" d="M187.5,255.505c0,33.084,26.916,60,60,60l0-120C214.416,195.505,187.5,222.421,187.5,255.505z"/>
	<path style="fill:#FF9811;" d="M307.5,255.505c0-33.084-26.916-60-60-60v120C280.584,315.505,307.5,288.589,307.5,255.505z"/>
	<path style="fill:#C70024;" d="M247.5,0c-66.821,0-122.331,49.346-132.011,113.51H247.5V0z"/>
	<path style="fill:#A5001E;" d="M379.51,113.51C369.83,49.346,314.321,0,247.5,0v113.51H379.51z"/>
	<rect x="93.99" y="113.51" style="fill:#FFA733;" width="307.018" height="40"/>
	<rect x="53.99" y="455" style="fill:#A5001E;" width="387.018" height="40"/>
</g>
<g>
</g>
<g>
</g>
<g>
</g>
<g>
</g>
<g>
</g>
<g>
</g>
<g>
</g>
<g>
</g>
<g>
</g>
<g>
</g>
<g>
</g>
<g>
</g>
<g>
</g>
<g>
</g>
<g>
</g>
</svg>
