<?xml version="1.0" encoding="iso-8859-1"?>
<!-- Generator: Adobe Illustrator 19.0.0, SVG Export Plug-In . SVG Version: 6.00 Build 0)  -->
<svg version="1.1" id="Layer_1" xmlns="http://www.w3.org/2000/svg" xmlns:xlink="http://www.w3.org/1999/xlink" x="0px" y="0px"
	 viewBox="0 0 511.999 511.999" height="1.5rem" width="1.5rem" style="enable-background:new 0 0 511.999 511.999;" xml:space="preserve">
<path style="fill:#E4EAF6;" d="M326.607,303.663v-12.318H185.388v12.318c0,8.273-5.747,15.437-13.823,17.232l-96.668,21.482
	c-28.268,6.282-48.381,31.354-48.381,60.312v91.658c0,9.75,7.903,17.652,17.652,17.652h423.658c9.75,0,17.652-7.903,17.652-17.652
	v-91.658c0-28.958-20.113-54.031-48.381-60.312l-96.668-21.482C332.354,319.1,326.607,311.937,326.607,303.663z"/>
<g>
	<path style="fill:#D7DEED;" d="M485.478,494.348v-91.659c0-16.01-6.301-30.691-16.576-41.807l-47.349,47.349
		c-9.932,9.932-15.511,23.402-15.511,37.446v66.322h61.783C477.576,512,485.478,504.096,485.478,494.348z"/>
	<path style="fill:#D7DEED;" d="M26.516,494.348v-91.659c0-16.01,6.301-30.691,16.576-41.807l47.349,47.349
		c9.932,9.932,15.511,23.402,15.511,37.446v66.322H44.169C34.42,512,26.516,504.096,26.516,494.348z"/>
</g>
<path style="fill:#FAD7A5;" d="M149.747,325.743c17.078,41.93,58.183,71.515,106.25,71.515s89.173-29.585,106.25-71.515
	l-21.817-4.849c-8.077-1.795-13.823-8.959-13.823-17.232v-38.797H185.388v38.797c0,8.275-5.746,15.437-13.823,17.232
	L149.747,325.743z"/>
<path style="fill:#F0C891;" d="M171.565,320.895l-20.84,4.632l-0.601,1.051c0.015,0.035,0.032,0.069,0.047,0.105
	c105.866,44.039,176.436-52.986,176.436-52.986v-8.826H185.388v38.792C185.388,311.937,179.642,319.1,171.565,320.895z"/>
<g>
	<path style="fill:#707487;" d="M485.478,459.043H26.516v24.272c0,1.219,0.987,2.207,2.207,2.207h454.549
		c1.219,0,2.207-0.987,2.207-2.207V459.043z"/>
	<rect x="26.521" y="406.082" style="fill:#707487;" width="458.962" height="26.479"/>
	<path style="fill:#707487;" d="M165.685,353.128H51.759c-9.172,6.771-16.317,15.888-20.601,26.479H195.01
		C183.771,372.518,173.844,363.563,165.685,353.128z"/>
	<path style="fill:#707487;" d="M316.985,379.607h163.853c-4.284-10.59-11.43-19.708-20.601-26.479H346.31
		C338.15,363.563,328.224,372.518,316.985,379.607z"/>
</g>
<g>
	<path style="fill:#5B5D6E;" d="M450.178,379.607h30.66c-2.817-6.962-6.97-13.197-12.021-18.638L450.178,379.607z"/>
	<path style="fill:#5B5D6E;" d="M421.554,408.232c-6.773,6.773-11.462,15.209-13.796,24.333h77.721v-26.479h-61.779L421.554,408.232
		z"/>
	<rect x="406.047" y="459.04" style="fill:#5B5D6E;" width="79.436" height="26.479"/>
	<path style="fill:#5B5D6E;" d="M61.816,379.607h-30.66c2.817-6.962,6.97-13.197,12.021-18.638L61.816,379.607z"/>
	<path style="fill:#5B5D6E;" d="M90.441,408.232c6.773,6.773,11.462,15.209,13.796,24.333H26.516v-26.479h61.779L90.441,408.232z"/>
	<rect x="26.521" y="459.04" style="fill:#5B5D6E;" width="79.436" height="26.479"/>
</g>
<path style="fill:#FFE1B4;" d="M370.738,145.822v-39.828H141.257v39.816c-5.333,4.027-8.833,10.36-8.833,17.559v17.652
	c0,10.674,7.581,19.575,17.652,21.621v16.234c0,17.706,8.169,34.241,21.768,44.063l39.242,28.342
	c8.03,5.799,17.465,8.895,27.116,8.895h35.576c9.651,0,19.086-3.095,27.116-8.895l39.242-28.342
	c13.599-9.821,21.768-26.357,21.768-44.063v-16.234c10.072-2.045,17.652-10.946,17.652-21.621v-17.652
	C379.557,156.177,376.064,149.851,370.738,145.822z"/>
<g>
	<path style="fill:#5A4137;" d="M211.86,185.435L211.86,185.435c-4.854,0-8.826-3.972-8.826-8.826v-8.826
		c0-4.854,3.972-8.826,8.826-8.826l0,0c4.854,0,8.826,3.972,8.826,8.826v8.826C220.686,181.463,216.714,185.435,211.86,185.435z"/>
	<path style="fill:#5A4137;" d="M300.122,185.435L300.122,185.435c-4.854,0-8.826-3.972-8.826-8.826v-8.826
		c0-4.854,3.972-8.826,8.826-8.826l0,0c4.854,0,8.826,3.972,8.826,8.826v8.826C308.948,181.463,304.976,185.435,300.122,185.435z"/>
</g>
<g>
	<path style="fill:#D7AF7D;" d="M273.643,256.042h-35.305c-4.874,0-8.826-3.948-8.826-8.826s3.952-8.826,8.826-8.826h35.305
		c4.874,0,8.826,3.948,8.826,8.826S278.517,256.042,273.643,256.042z"/>
	<path style="fill:#D7AF7D;" d="M225.106,167.783h-26.479c-4.874,0-8.826-3.952-8.826-8.826l0,0c0-4.874,3.952-8.826,8.826-8.826
		h26.479c4.874,0,8.826,3.952,8.826,8.826l0,0C233.932,163.831,229.981,167.783,225.106,167.783z"/>
	<path style="fill:#D7AF7D;" d="M313.368,167.783h-26.479c-4.874,0-8.826-3.952-8.826-8.826l0,0c0-4.874,3.952-8.826,8.826-8.826
		h26.479c4.874,0,8.826,3.952,8.826,8.826l0,0C322.194,163.831,318.243,167.783,313.368,167.783z"/>
</g>
<path style="fill:#E4EAF6;" d="M255.997,0c-43.745,0-82.803,6.053-109.095,15.558c-3.447,1.246-5.645,4.597-5.645,8.261v108.654
	h229.481V23.82c0-3.664-2.2-7.016-5.645-8.261C338.801,6.053,299.742,0,255.997,0z"/>
<g>
	<rect x="141.261" y="79.513" style="fill:#707487;" width="229.481" height="26.479"/>
	<rect x="141.261" y="26.556" style="fill:#707487;" width="229.481" height="26.479"/>
</g>
<g>
</g>
<g>
</g>
<g>
</g>
<g>
</g>
<g>
</g>
<g>
</g>
<g>
</g>
<g>
</g>
<g>
</g>
<g>
</g>
<g>
</g>
<g>
</g>
<g>
</g>
<g>
</g>
<g>
</g>
</svg>
