<?xml version="1.0" encoding="iso-8859-1"?>
<!-- Generator: Adobe Illustrator 19.0.0, SVG Export Plug-In . SVG Version: 6.00 Build 0)  -->
<svg version="1.1" id="Layer_1" xmlns="http://www.w3.org/2000/svg" xmlns:xlink="http://www.w3.org/1999/xlink" x="0px" y="0px"
	 viewBox="0 0 512 512" height="1.5rem" width="1.5rem" style="enable-background:new 0 0 512 512;" xml:space="preserve">
<g>
	<g>
		<path d="M195.266,198.706l-43.725-46.002c-3.293-3.465-7.609-5.356-12.027-5.692c-5.4-2-5.057-1.557-46.041-3.455
			c-15.014-0.695-27.885,10.621-29.116,25.601l-11.209,128.53l-2.127,83.64L36.314,486.674c-1.698,12.169,6.789,23.41,18.957,25.109
			c12.17,1.699,23.411-6.791,25.109-18.957l14.882-106.596c0.115-0.832,0.185-1.67,0.206-2.511l1.749-68.757l5.186,0.241
			l25.033,68.251l7.019,107.742c0.797,12.251,11.372,21.553,23.645,20.754c12.261-0.799,21.553-11.385,20.754-23.645l-7.227-110.944
			c-0.139-2.124-0.58-4.217-1.313-6.214l-23.491-64.048l2.368-28.815c-7.916-3.353-4.631-1.961-11.952-5.062
			c-5.507-2.332-9.312-7.126-10.689-12.504l-14.935-59.893l28.845,52.208c2.008,3.632,5.175,6.487,8.997,8.105l64.399,27.275
			c9.422,3.992,20.306-0.409,24.301-9.841c3.993-9.428-0.413-20.308-9.841-24.301l-58.5-24.777l-25.746-46.601
			c10.36,10.79,19.452,20.257,29.843,31.079l48.258,20.439l32.132-1.704l6.073-27.806c0.767-3.511,2.062-6.824,3.805-9.849
			L195.266,198.706z"/>
	</g>
</g>
<g>
	<g>
		<circle cx="122.37" cy="91.591" r="38.148"/>
	</g>
</g>
<g>
	<g>
		<path d="M63.646,63.253L18.641,54.16c-4.137-0.837-8.166,1.84-9.003,5.976s1.84,8.167,5.976,9.003l45.005,9.094
			c4.133,0.836,8.168-1.837,9.003-5.976C70.458,68.12,67.782,64.09,63.646,63.253z"/>
	</g>
</g>
<g>
	<g>
		<path d="M79.23,43.14L36.558,2.132c-3.043-2.924-7.879-2.828-10.804,0.215c-2.924,3.042-2.828,7.879,0.215,10.804L68.641,54.16
			c3.045,2.926,7.883,2.826,10.804-0.215C82.369,50.902,82.274,46.065,79.23,43.14z"/>
	</g>
</g>
<g>
	<g>
		<path d="M496.194,284.289l-57.373-47.606l-11.979-18.801l2.535-29.494l0.019-0.215c1.241-14.435-9.483-27.032-23.786-28.26
			l-46.407-3.99c-11.759-1.01-22.495,5.976-26.599,16.608l23.509-3.334l-68.552,26.707c-5.467,2.131-9.503,6.853-10.755,12.585
			c-1.462,6.695-13.507,61.846-14.933,68.376c-2.096,9.595,4.136,18.611,13.377,20.852c10.857,2.633,19.207-5.842,20.853-13.377
			l12.929-59.201l62.08-24.186l-44.781,32.423l-5.669,79.951l12.636,80.753l-33.5,88.821c-4.097,10.863,1.388,22.99,12.25,27.087
			c10.855,4.096,22.989-1.382,27.087-12.25l35.46-94.015c1.284-3.404,1.663-7.084,1.098-10.679l-7.099-45.22l-4.834-30.792
			l11.088,0.953l33.541,74.219l23.366,102.776c2.573,11.316,13.833,18.412,25.159,15.838c11.321-2.574,18.411-13.837,15.838-25.159
			l-23.836-104.842c-0.312-1.374-0.762-2.713-1.343-3.996l-28.895-63.937c0.98-11.398,1.332-15.496,3.81-44.313l51.376,42.63
			c7.435,6.169,18.459,5.139,24.624-2.29C504.652,301.48,503.625,290.455,496.194,284.289z"/>
	</g>
</g>
<g>
	<g>
		<path d="M396.903,67.537c-21.275-1.829-40.005,13.935-41.835,35.211c-1.84,21.413,14.107,40.021,35.211,41.835
			c21.191,1.821,40-13.865,41.835-35.211C433.943,88.097,418.179,69.367,396.903,67.537z"/>
	</g>
</g>
<g>
</g>
<g>
</g>
<g>
</g>
<g>
</g>
<g>
</g>
<g>
</g>
<g>
</g>
<g>
</g>
<g>
</g>
<g>
</g>
<g>
</g>
<g>
</g>
<g>
</g>
<g>
</g>
<g>
</g>
</svg>
